<?xml version="1.0" encoding="utf-8"?>
<!-- Generator: Adobe Illustrator 14.0.0, SVG Export Plug-In . SVG Version: 6.00 Build 43363)  -->
<!DOCTYPE svg PUBLIC "-//W3C//DTD SVG 1.1//EN" "http://www.w3.org/Graphics/SVG/1.1/DTD/svg11.dtd">
<svg version="1.1" id="Warstwa_1" xmlns="http://www.w3.org/2000/svg" xmlns:xlink="http://www.w3.org/1999/xlink" x="0px" y="0px"
	 width="120px" height="25px" viewBox="0 0 120 25" enable-background="new 0 0 120 25" xml:space="preserve">
<rect y="0.277" fill="#959595" width="4.964" height="23.862"/>
<rect x="17.982" y="0.277" fill="#959595" width="12.053" height="4.203"/>
<rect x="17.982" y="9.967" fill="#959595" width="10.561" height="4.16"/>
<path fill="#959595" d="M48.865,21.979c-1.498,1.842-3.762,2.758-6.795,2.758c-3.036,0-5.301-0.916-6.787-2.758
	c-1.503-1.84-2.243-4.056-2.243-6.646c0-2.548,0.74-4.755,2.243-6.632c1.486-1.861,3.751-2.798,6.787-2.798
	c3.033,0,5.297,0.937,6.795,2.798c1.489,1.876,2.235,4.084,2.235,6.632C51.1,17.924,50.354,20.139,48.865,21.979 M45.171,19.43
	c0.718-0.969,1.08-2.328,1.08-4.098c0-1.766-0.362-3.141-1.08-4.093c-0.728-0.952-1.762-1.434-3.112-1.434
	c-1.353,0-2.393,0.482-3.128,1.434c-0.725,0.952-1.091,2.327-1.091,4.093c0,1.77,0.366,3.129,1.091,4.098
	c0.735,0.953,1.775,1.439,3.128,1.439C43.409,20.869,44.443,20.383,45.171,19.43"/>
<path fill="#959595" d="M64.945,6.058c0.05,0.004,0.18,0.009,0.387,0.018v4.738c-0.293-0.03-0.55-0.059-0.781-0.068
	c-0.219-0.009-0.41-0.015-0.547-0.015c-1.85,0-3.109,0.6-3.74,1.816c-0.357,0.694-0.532,1.73-0.532,3.148v8.451h-4.661V6.472h4.417
	v3.08c0.708-1.182,1.323-1.993,1.855-2.421c0.865-0.727,1.996-1.093,3.371-1.093C64.803,6.039,64.879,6.042,64.945,6.058"/>
<path fill="#959595" d="M83.494,7.474c1.152,0.965,1.729,2.542,1.729,4.759v11.914H80.5V13.398c0-0.937-0.127-1.657-0.375-2.153
	c-0.45-0.906-1.311-1.36-2.579-1.36c-1.554,0-2.624,0.663-3.198,1.998c-0.297,0.703-0.453,1.604-0.453,2.684v9.58H69.27V6.493h4.476
	v2.58c0.598-0.907,1.147-1.564,1.681-1.967c0.944-0.708,2.155-1.068,3.604-1.068C80.838,6.039,82.339,6.526,83.494,7.474"/>
<path fill="#959595" d="M101.639,6.822c1.236,0.556,2.25,1.427,3.053,2.617c0.729,1.054,1.197,2.261,1.41,3.651
	c0.125,0.816,0.172,1.973,0.154,3.516H93.375c0.074,1.773,0.691,3.006,1.854,3.73c0.705,0.445,1.556,0.662,2.554,0.662
	c1.045,0,1.901-0.277,2.561-0.818c0.359-0.287,0.679-0.697,0.953-1.205h4.72c-0.125,1.041-0.699,2.105-1.716,3.187
	c-1.584,1.717-3.797,2.578-6.651,2.578c-2.353,0-4.42-0.714-6.217-2.175c-1.804-1.444-2.701-3.813-2.701-7.071
	c0-3.064,0.807-5.407,2.43-7.045c1.627-1.638,3.73-2.452,6.322-2.452C99.021,5.995,100.409,6.277,101.639,6.822 M94.723,10.819
	c-0.654,0.668-1.063,1.578-1.231,2.724h7.961c-0.083-1.208-0.493-2.144-1.224-2.788c-0.74-0.626-1.656-0.951-2.746-0.951
	C96.295,9.805,95.374,10.139,94.723,10.819"/>
<path fill="#959595" d="M119.605,6.058c0.053,0.004,0.188,0.009,0.395,0.018v4.738c-0.297-0.03-0.555-0.059-0.779-0.068
	c-0.223-0.009-0.414-0.015-0.551-0.015c-1.859,0-3.105,0.6-3.748,1.816c-0.357,0.694-0.533,1.73-0.533,3.148v8.451h-4.654V6.472
	h4.41v3.08c0.717-1.182,1.334-1.993,1.863-2.421c0.863-0.727,1.99-1.093,3.375-1.093C119.467,6.039,119.539,6.042,119.605,6.058"/>
</svg>
