<svg width="80" height="20" viewBox="0 0 80 20" fill="none" xmlns="http://www.w3.org/2000/svg">
<g clip-path="url(#svg_6a37c5bfd62cd3_48002034clip0_4601_2655)">
<path d="M5.6456 14.1398V5.89172C5.6456 5.51962 5.9558 5.20954 6.32803 5.20954H23.2958V0.03125H4.62195C2.07832 0.03125 0 2.10877 0 4.65141V10.0157V15.3801C0 17.9227 2.07832 20.0002 4.62195 20.0002H19.1082C21.6518 20.0002 23.7301 17.9227 23.7301 15.3801V8.12427H11.4773V12.2483H18.1155V14.1398C18.1155 14.5119 17.8054 14.8219 17.4331 14.8219H6.32803C5.9558 14.8219 5.6456 14.5119 5.6456 14.1398Z" fill="#004A91"/>
<path d="M73.7979 0L65.2675 14.7907H64.492L55.9305 0H49.7266L61.2969 20H68.4625L80.0019 0H73.7979Z" fill="#004A91"/>
<path d="M47.7079 0H25.1875V5.17829H34.5865V20H40.2321V5.17829H50.7168L47.7079 0Z" fill="#004A91"/>
</g>
<defs>
<clipPath id="svg_6a37c5bfd62cd3_48002034clip0_4601_2655">
<rect width="80" height="20" fill="white"/>
</clipPath>
</defs>
</svg>
