<svg version="1.2" xmlns="http://www.w3.org/2000/svg" viewBox="0 0 894 224" width="894" height="224">
	<title>nomet_logo_niebieskie</title>
	<style>
		.s0 { fill: #365abd }
	</style>
	<g>
		<g id="Warstwa_1">
			<g>
				<path fill-rule="evenodd" class="s0" d="m296.4 201.7c-14.1 0-26.8-3.1-38.1-9.2-11.3-6.1-20.2-14.8-26.6-26.1-6.5-11.3-9.7-24.4-9.7-39.3 0-14.9 3.3-28.6 9.8-39.9 6.6-11.3 15.5-20 26.9-26.1 11.4-6.1 24.2-9.2 38.3-9.2 14.1 0 27.4 3.1 38.6 9.2 11.2 6.2 20.1 14.9 26.6 26.1 6.6 11.3 9.8 24.5 9.8 39.6 0 15.1-3.3 28.3-10 39.6-6.7 11.3-15.6 20-26.9 26.1-11.3 6.1-24.2 9.2-38.7 9.2zm0.3-20.5c8.7 0 16.7-2 24.2-6.1 7.5-4.1 13.5-10.2 18.2-18.3 4.6-8.1 7-18.2 7-30.1 0-11.9-2.3-22.2-6.8-30.2-4.5-8-10.5-14.1-17.9-18.2-7.4-4.1-15.5-6.1-24.4-6.1-8.9 0-16.5 2-24.1 6.1-7.6 4.1-13.6 10.1-18.2 18.2-4.5 8-6.8 18.1-6.8 30.2 0 12.1 2.3 21.9 6.8 30.1 4.5 8.1 10.5 14.2 17.9 18.3 7.4 4.1 15.4 6.1 24.1 6.1z"/>
				<path class="s0" d="m708.9 201.9c-14.1 0-26.7-3.1-37.8-9.4-11.1-6.2-19.8-15-26-26.2-6.3-11.3-9.4-24.4-9.4-39.3 0-14.9 3.1-28.3 9.2-39.4 6.2-11.2 14.8-19.9 26-26.1 11.2-6.2 24.1-9.4 38.6-9.4 14.5 0 27.6 3.1 38.1 9.4 10.5 6.2 18.5 14.4 24.1 24.5 5.5 10.1 8.3 21.2 8.3 33.3v6c0 2.1-0.1 4.4-0.3 7.1h-125v-18.4h100.2q-0.9-19.7-13.8-30.6c-8.6-7.4-19.3-11.1-32.2-11.1-12.9 0-16.4 1.8-23.9 5.5-7.5 3.7-13.4 9.1-17.9 16.2-4.4 7.1-6.7 15.9-6.7 26.5v7.9c0 11.7 2.3 21.6 6.8 29.5 4.5 7.9 10.5 13.9 17.9 17.9 7.4 4 15.3 6 23.8 6 8.5 0 19.5-2.2 26.5-6.7q10.5-6.6 15.3-18.3h25.1c-2.6 8.7-7 16.4-13 23.1-6.1 6.7-13.6 12.1-22.6 16-9 4-19.4 6-31.3 6z"/>
				<path class="s0" d="m839.7 198.4c-9.1 0-17-1.3-23.6-4q-10.1-3.9-15.3-13.5c-3.5-6.3-5.3-14.9-5.3-25.7v-128.1h20l5.5 36.1v91.9c0 8.9 1.9 14.9 5.8 18 3.8 3.1 10.6 4.7 20.3 4.7h19.8v20.4h-27.1z"/>
				<path class="s0" d="m866.7 90.3h-45.9l15.7-22.5h30.2v22.5z"/>
				<path class="s0" d="m29.2 67.2h45.1v23.3h-45.1z"/>
				<path class="s0" d="m594.4 115c0-30-11.5-41.8-33-41.8-21.5 0-31.2 12.3-45.9 25 0.6 3.4 0.9 7.6 0.9 11.8v88.6h-23.9v-83.6c0-30-11.8-42.1-33.3-41.8-26.5 0.4-45.6 25.8-45.6 25.8v99.6h-24.1v-109.3c0 0 30.2-37.7 70.7-37.7 40.5 0 39.5 7 49.8 26.9 13.3-12.9 33-26.9 52.1-26.9 30.6 0 56.5 16 56.5 58.3v88.6h-24.1v-83.6z"/>
				<path class="s0" d="m181.1 114.9c0-30.5-13-41.8-34.8-41.7-26.9 0-48.3 25.3-48.3 25.3v99.9h-23.9l-0.2-108.2c0 0 30.1-38.3 72.9-38.6 42.8-0.3 57.7 15.1 57.7 58.3v88.5h-23.6v-83.5z"/>
			</g>
		</g>
	</g>
</svg>
