<svg
        viewBox="0 0 87 22"
        fill="#434242"
        xmlns="http://www.w3.org/2000/svg"
>
    <path d="M15.8401 7.69655L10.3541 11.9943C9.74228 12.4736 9.47083 12.4755 8.86898 12.0025L5.5289 9.37802C4.87754 8.8741 4.14045 9.28951 3.90321 9.59376C3.66604 9.89801 3.4625 10.7093 4.1056 11.2034L8.14105 14.3604C9.11977 15.1259 10.1091 15.102 11.0875 14.3419L18.076 8.9127C19.0599 8.14831 19.0605 6.78717 18.0797 6.02787L11.0585 0.591826C10.0406 -0.196326 9.14824 -0.197361 8.13544 0.589241L1.62016 5.64919C0.162511 6.78123 -0.00248973 7.15139 2.79181e-05 9.00147L0.00544953 13.0731C0.00777351 14.8288 0.18575 15.2585 1.57633 16.335L8.14164 21.4183C9.14618 22.1961 10.1002 22.1936 11.1036 21.4127L18.3178 15.7988C18.988 15.2836 18.7618 14.4704 18.5242 14.1666C18.2866 13.8628 17.5556 13.4921 16.8923 14.0043L10.3677 19.0824C9.76171 19.5539 9.47102 19.5548 8.8644 19.0853L2.51864 14.1728C2.35422 14.0455 2.29721 13.9617 2.29696 13.755L2.2894 8.23926C2.28908 8.03353 2.32608 7.956 2.49282 7.82663L8.85529 2.88772C9.45611 2.42131 9.73485 2.4197 10.3385 2.8916L15.8369 7.18986C16.1022 7.39728 16.0616 7.52413 15.8401 7.69655Z" />
    <path d="M37.2654 9.70154L37.2622 7.32961L28.243 7.3375L28.247 9.70943L37.2654 9.70154ZM39.6399 10.6897C39.6412 11.6138 39.1542 12.0781 38.2393 12.0792L35.9359 12.0823L39.5318 15.2106C40.0079 15.6248 40.0039 16.3409 39.6269 16.7415C39.25 17.1421 38.516 17.1891 38.0797 16.7995L32.8011 12.086L28.2606 12.0846L28.2655 15.6971C28.2663 16.3033 27.9538 17.0168 27.1121 17.0176C26.2705 17.0182 25.8967 16.5094 25.8958 15.7026L25.886 6.4791C25.885 5.54749 26.3433 4.94256 27.2624 4.94174L38.2537 4.93213C39.1727 4.93139 39.6329 5.47172 39.6342 6.39676L39.6399 10.6897Z" />
    <path d="M54.1939 16.9148L43.6498 16.924C42.7324 16.9248 42.2707 16.461 42.2695 15.5328L42.2573 6.47902C42.2561 5.55069 42.715 5.08612 43.634 5.0853L54.178 5.07617C54.39 5.07601 55.4026 5.17576 55.404 6.25544C55.4055 7.33512 54.3466 7.44309 54.1932 7.44325L44.6491 7.45155L44.6523 9.88067L54.2248 9.87705C54.4437 9.87697 55.4091 9.9842 55.4105 11.045C55.4119 12.1057 54.4493 12.1206 54.2152 12.121L44.6617 12.1395L44.665 14.5903L54.244 14.5774C54.3472 14.5773 55.4284 14.6723 55.4298 15.7596C55.4312 16.8469 54.385 16.9146 54.1939 16.9148Z" />
    <path d="M70.3363 15.4844C70.3375 16.4062 69.8818 16.927 68.9693 16.9278L59.0695 16.9364C58.7379 16.9367 57.7885 16.8257 57.787 15.7372C57.7855 14.6486 58.7668 14.5891 59.0664 14.5888L67.9338 14.5811L67.9241 7.40533L63.3123 7.40927C62.4078 7.42488 61.9375 6.91331 61.9366 6.26213C61.9357 5.61096 62.3265 5.0703 63.2845 5.0758L69.1938 5.06397C69.9732 5.06331 70.3234 5.91514 70.3243 6.58176L70.3363 15.4844Z" />
    <path d="M86.5526 15.5934C86.5538 16.5194 86.0857 16.9136 85.1552 16.9145L73.9611 16.9242C73.3786 16.9247 72.6812 16.5638 72.6936 15.7783C72.7061 14.9928 73.2556 14.5811 73.9584 14.5798L84.1573 14.5619L84.1542 12.2203L74.1577 12.2296C73.2411 12.2304 72.7785 11.7234 72.7773 10.8193L72.7718 6.68707C72.7706 5.75883 73.2291 5.08629 74.1481 5.08547L85.3186 5.07568C85.4947 5.07552 86.5562 5.16303 86.5577 6.25726C86.5592 7.35148 85.4373 7.4426 85.3218 7.44276L75.1498 7.45164L75.1528 9.83779L85.1458 9.82973C86.0786 9.82891 86.5452 10.0834 86.5464 11.0088L86.5526 15.5934Z" />
</svg>