<svg xmlns="http://www.w3.org/2000/svg" id="Warstwa_2" viewBox="0 0 176.49 53.44"><defs><style>.cls-1{fill:#881c22;}.cls-1,.cls-2{stroke-width:0px;}.cls-2{fill:#313335;}</style></defs><g id="Warstwa_1-2"><polygon class="cls-2" points="31.88 10.52 27.4 29.8 22.63 10.52 15.85 10.52 11 29.85 6.5 10.52 0 10.52 7.47 35.89 14.43 35.89 19.06 18.17 23.69 35.89 30.6 35.89 38.02 10.52 31.88 10.52"></polygon><path class="cls-2" d="M42.91,6.44c-.74-.69-1.15-1.67-1.12-2.68-.02-1.01.39-1.98,1.12-2.68,1.6-1.43,4.03-1.43,5.64,0,.74.69,1.14,1.67,1.12,2.68.02,1.01-.38,1.99-1.12,2.68-1.6,1.43-4.03,1.43-5.64,0M48.88,10.53v25.36h-6.41V10.52l6.41.02Z"></path><path class="cls-2" d="M79.61,25.13h-18.55c.15,1.83.8,3.26,1.93,4.3,1.13,1.04,2.63,1.6,4.17,1.56,2.38,0,4.08-1.02,5.09-3.07h6.92c-.71,2.41-2.19,4.53-4.21,6.02-2.07,1.57-4.62,2.36-7.65,2.36-2.29.04-4.56-.52-6.57-1.62-1.92-1.07-3.5-2.66-4.54-4.6-1.11-2.12-1.67-4.48-1.62-6.88-.05-2.41.51-4.78,1.62-6.92,1.01-1.93,2.56-3.53,4.47-4.59,4.12-2.12,9-2.13,13.13-.03,1.88,1.01,3.43,2.54,4.45,4.42,1.08,2.02,1.62,4.28,1.58,6.57,0,.83-.06,1.66-.19,2.48M73.14,20.82c.03-1.52-.63-2.97-1.79-3.96-1.19-1-2.7-1.53-4.26-1.49-1.47-.04-2.9.47-4.01,1.44-1.13,1.05-1.84,2.48-1.99,4.01h12.05Z"></path><path class="cls-2" d="M85.78,16.31c1.02-1.92,2.56-3.51,4.45-4.58,1.99-1.1,4.23-1.66,6.5-1.62,3.15,0,5.75.79,7.81,2.36,2.06,1.57,3.44,3.78,4.15,6.62h-6.92c-.33-1.04-.98-1.95-1.86-2.59-.95-.65-2.08-.98-3.24-.94-1.69-.07-3.3.67-4.35,1.99-1.08,1.33-1.62,3.21-1.62,5.66s.54,4.32,1.62,5.61c1.05,1.32,2.66,2.06,4.35,1.99,2.59,0,4.29-1.16,5.08-3.48h6.92c-.61,2.59-2.07,4.89-4.16,6.53-2.07,1.62-4.67,2.43-7.79,2.43-2.27.05-4.52-.51-6.5-1.62-1.89-1.07-3.43-2.66-4.45-4.58-1.11-2.12-1.67-4.49-1.62-6.88-.05-2.41.5-4.79,1.62-6.92"></path><path class="cls-2" d="M133.77,11.41c1.52.86,2.75,2.15,3.52,3.71.88,1.83,1.31,3.85,1.25,5.88v14.89h-6.41v-14.01c0-2.02-.5-3.57-1.51-4.65-1.01-1.08-2.38-1.62-4.12-1.62-1.77,0-3.17.54-4.19,1.62-1.02,1.08-1.54,2.63-1.54,4.65v14.01h-6.41V1.99h6.41v11.69c.86-1.13,2-2.02,3.3-2.59,1.44-.64,3-.96,4.58-.94,1.79-.03,3.56.4,5.13,1.26"></path><polygon class="cls-1" points="155.32 35.9 145.39 2 157.89 2 167.82 35.9 155.32 35.9"></polygon><polygon class="cls-2" points="163.99 1.96 162.89 6.26 164.96 13.31 166.9 5.71 171.66 5.71 167.5 22 169.56 29.05 176.49 1.96 163.99 1.96"></polygon><polygon class="cls-1" points="12.27 43.31 12.27 44.51 9.03 44.51 9.03 46.39 11.51 46.39 11.51 47.57 9.03 47.57 9.03 50.68 7.5 50.68 7.5 43.31 12.27 43.31"></polygon><path class="cls-1" d="M13.04,46.16c.23-.43.58-.8,1.01-1.06.43-.25.93-.37,1.43-.36.42-.02.84.07,1.22.25.32.16.61.39.83.67v-.83h1.57v5.84h-1.58v-.85c-.21.29-.49.53-.81.69-.38.18-.79.28-1.21.27-.5.01-.99-.12-1.42-.36-.43-.26-.78-.63-1.01-1.07-.26-.49-.39-1.04-.38-1.59-.02-.55.11-1.09.37-1.59M17.28,46.83c-.13-.25-.34-.45-.59-.59-.25-.14-.53-.21-.81-.21-.28,0-.56.07-.8.2-.25.14-.46.34-.6.57-.16.28-.23.6-.23.91,0,.32.07.64.23.92.14.25.35.46.6.61.24.14.51.21.79.21.29,0,.57-.07.81-.21.25-.14.46-.34.6-.59.3-.58.3-1.26,0-1.85h0Z"></path><path class="cls-1" d="M22.99,44.99c.37-.18.79-.27,1.2-.26.5,0,1,.12,1.43.36.44.26.8.63,1.03,1.07.26.49.39,1.03.38,1.57,0,.55-.12,1.1-.38,1.59-.23.44-.58.81-1.01,1.07-.43.25-.93.37-1.43.36-.42.01-.83-.08-1.2-.26-.33-.16-.61-.39-.83-.67v.83h-1.57v-7.79h1.56v2.82c.21-.3.49-.54.83-.7M25.19,46.81c-.14-.24-.35-.45-.6-.59-.25-.13-.52-.2-.8-.2-.28,0-.55.07-.79.21-.25.14-.46.35-.6.6-.3.57-.3,1.25,0,1.82.14.25.35.45.6.6.24.14.51.21.79.21.28,0,.56-.07.8-.21.25-.15.46-.36.6-.6.16-.29.23-.61.23-.93,0-.31-.07-.62-.23-.9"></path><path class="cls-1" d="M30.53,45.01c.34-.18.72-.27,1.1-.26v1.55h-.41c-.4-.03-.79.09-1.11.33-.29.31-.42.73-.38,1.14v2.91h-1.55v-5.84h1.55v.91c.19-.3.47-.55.79-.73"></path><polygon class="cls-1" points="37.18 44.83 35.57 48.92 33.98 44.83 32.23 44.83 34.7 50.53 33.36 53.44 35 53.44 38.83 44.83 37.18 44.83"></polygon><polygon class="cls-1" points="43.32 50.68 41.23 48.19 41.23 50.68 39.68 50.68 39.68 42.87 41.23 42.87 41.23 47.31 43.3 44.83 45.32 44.83 42.61 47.77 45.34 50.68 43.32 50.68"></polygon><path class="cls-1" d="M45.85,46.16c.23-.43.58-.8,1.01-1.06.43-.25.93-.37,1.43-.36.42,0,.83.08,1.2.26.33.16.61.39.83.67v-.83h1.57v5.84h-1.57v-.86c-.21.29-.5.52-.83.68-.38.18-.79.27-1.21.27-.5.01-.99-.12-1.42-.36-.43-.26-.78-.63-1.01-1.07-.26-.49-.39-1.04-.38-1.59-.01-.55.12-1.1.38-1.59M50.1,46.83c-.14-.25-.34-.45-.6-.59-.75-.43-1.72-.19-2.17.52-.01.02-.03.04-.04.06-.16.28-.24.6-.23.91,0,.32.07.64.23.92.14.25.35.46.6.61.24.14.51.21.79.21s.57-.07.81-.21c.25-.14.46-.34.6-.59.3-.58.3-1.26,0-1.85"></path><polygon class="cls-1" points="61.06 43.31 61.06 44.51 57.83 44.51 57.83 46.39 60.31 46.39 60.31 47.57 57.83 47.57 57.83 50.68 56.28 50.68 56.28 43.31 61.06 43.31"></polygon><path class="cls-1" d="M64.28,45.01c.34-.18.72-.27,1.11-.26v1.55h-.43c-.71-.11-1.37.35-1.48,1.02-.03.14-.02.29,0,.44v2.91h-1.56v-5.83h1.56v.91c.19-.3.47-.55.79-.73"></path><path class="cls-1" d="M67.53,50.4c-.47-.24-.85-.6-1.12-1.04-.28-.49-.42-1.03-.41-1.58-.01-.55.13-1.1.41-1.58.27-.45.67-.82,1.15-1.06,1.01-.5,2.21-.5,3.22,0,.48.24.88.61,1.15,1.06.28.48.43,1.03.42,1.58.01.55-.14,1.1-.43,1.58-.27.45-.67.82-1.15,1.06-.5.25-1.06.37-1.62.36-.57,0-1.13-.12-1.63-.38M69.92,49.29c.25-.14.46-.34.59-.59.16-.29.23-.62.22-.95.03-.47-.13-.93-.46-1.28-.29-.29-.7-.46-1.13-.45-.42,0-.83.16-1.11.45-.32.35-.48.81-.45,1.28-.03.46.12.92.44,1.28.28.3.69.46,1.11.45.28,0,.56-.06.81-.2h-.02Z"></path><path class="cls-1" d="M78.7,45.41c.48.5.72,1.17.68,1.84v3.43h-1.56v-3.23c.03-.39-.1-.77-.36-1.07-.26-.25-.63-.39-1-.36-.38-.02-.75.11-1.02.36-.27.3-.41.68-.38,1.07v3.23h-1.56v-5.84h1.56v.73c.21-.26.49-.46.8-.6.33-.15.69-.22,1.06-.22.67-.03,1.32.21,1.79.66"></path><path class="cls-1" d="M82.58,46.05v2.83c-.02.16.04.31.15.43.15.1.32.15.5.13h.72v1.24h-.98c-1.31,0-1.97-.6-1.97-1.82v-2.81h-.73v-1.21h.73v-1.46h1.57v1.46h1.38v1.21h-1.38Z"></path><path class="cls-1" d="M86.19,50.4c-.47-.25-.85-.62-1.11-1.06-.28-.49-.42-1.03-.41-1.58-.01-.55.13-1.1.42-1.58.27-.45.67-.82,1.15-1.06,1.01-.5,2.21-.5,3.22,0,.48.24.88.61,1.15,1.06.28.48.42,1.03.4,1.58.01.55-.14,1.1-.42,1.58-.27.45-.67.81-1.15,1.06-.5.25-1.06.37-1.63.36-.56.01-1.12-.11-1.61-.36M88.59,49.29c.25-.14.46-.34.6-.59.16-.29.23-.62.22-.95.03-.47-.14-.93-.46-1.28-.29-.29-.7-.46-1.13-.45-.42,0-.83.16-1.12.45-.59.76-.59,1.79,0,2.55.28.3.68.46,1.1.45.27,0,.54-.06.79-.18M89.11,43.24l-2.55,1.09v-1.05l2.55-1.26v1.22Z"></path><polygon class="cls-1" points="100.58 44.83 98.78 50.68 97.1 50.68 95.99 46.59 94.87 50.68 93.18 50.68 91.37 44.83 92.94 44.83 94.03 49.29 95.22 44.83 96.86 44.83 98.01 49.28 99.1 44.83 100.58 44.83"></polygon><polygon class="cls-1" points="112.75 43.31 112.75 50.68 111.19 50.68 111.19 45.89 109.11 50.68 107.94 50.68 105.85 45.89 105.85 50.68 104.29 50.68 104.29 43.31 106.06 43.31 108.52 48.79 110.99 43.31 112.75 43.31"></polygon><path class="cls-1" d="M120.08,48.2h-4.5c.02.37.18.73.47.99.27.24.64.37,1.01.36.53.03,1.02-.25,1.23-.71h1.68c-.17.55-.53,1.04-1.02,1.39-.54.37-1.19.56-1.86.54-.55.01-1.1-.11-1.59-.36-.46-.25-.85-.62-1.1-1.06-.52-1-.52-2.18,0-3.18.25-.45.62-.81,1.09-1.06,1-.48,2.18-.48,3.18,0,.46.23.83.59,1.08,1.02.26.46.39.99.38,1.51,0,.18-.02.37-.05.55M118.51,47.21c0-.35-.15-.69-.43-.91-.29-.23-.66-.35-1.03-.34-.36,0-.7.11-.97.33-.28.24-.45.57-.48.92h2.92Z"></path><path class="cls-1" d="M123.69,44.99c.37-.18.79-.27,1.2-.26.5,0,1,.12,1.43.36.43.26.78.62,1.01,1.05.26.49.39,1.03.38,1.58,0,.55-.12,1.1-.38,1.59-.23.44-.58.81-1.01,1.07-.43.25-.93.37-1.43.36-.42,0-.83-.08-1.2-.26-.33-.16-.61-.39-.83-.67v.83h-1.56v-7.78h1.56v2.82c.21-.3.49-.54.83-.7M125.89,46.81c-.14-.24-.35-.45-.6-.59-.25-.13-.52-.2-.8-.2-.28,0-.55.07-.79.21-.25.14-.46.35-.6.6-.3.57-.3,1.25,0,1.82.14.25.35.45.6.6.24.14.51.21.79.21.28,0,.56-.07.8-.21.25-.15.46-.36.6-.6.16-.29.23-.61.23-.93,0-.31-.07-.62-.23-.9"></path><rect class="cls-1" x="128.9" y="42.87" width="1.56" height="7.81"></rect><path class="cls-1" d="M133.18,50.4c-.47-.25-.86-.61-1.12-1.06-.28-.48-.42-1.03-.41-1.58-.01-.55.13-1.1.41-1.58.27-.45.67-.82,1.15-1.06,1.01-.5,2.21-.5,3.22,0,.48.24.88.61,1.15,1.06.28.48.43,1.03.42,1.58.01.56-.14,1.1-.43,1.58-.27.45-.67.82-1.15,1.06-.5.25-1.06.37-1.62.36-.57.01-1.13-.11-1.63-.36M135.57,49.29c.25-.14.46-.34.59-.59.16-.29.23-.62.22-.95.03-.47-.13-.93-.46-1.28-.29-.29-.7-.46-1.13-.45-.42,0-.83.16-1.11.45-.32.35-.48.81-.45,1.28-.03.47.13.92.44,1.28.28.3.69.46,1.11.45.28,0,.55-.07.79-.2"></path><polygon class="cls-1" points="147.57 44.83 145.78 50.68 144.1 50.68 142.98 46.59 141.86 50.68 140.17 50.68 138.36 44.83 139.94 44.83 141.03 49.29 142.2 44.83 143.85 44.83 145 49.28 146.08 44.83 147.57 44.83"></polygon><polygon class="cls-1" points="153.02 44.83 151.41 48.92 149.82 44.83 148.08 44.83 150.54 50.53 149.2 53.44 150.86 53.44 154.67 44.83 153.02 44.83"></polygon><path class="cls-1" d="M155.26,46.17c.24-.44.62-.81,1.08-1.06.48-.25,1.03-.38,1.58-.36.68-.03,1.34.16,1.89.54.51.38.87.92,1.01,1.52h-1.68c-.08-.24-.24-.45-.45-.6-.23-.15-.49-.22-.77-.22-.41-.02-.8.15-1.06.46-.52.8-.52,1.8,0,2.59.26.3.65.47,1.06.46.56.05,1.08-.29,1.23-.8h1.68c-.15.6-.5,1.13-1.01,1.51-.54.38-1.21.58-1.89.56-.55.01-1.09-.11-1.58-.36-.46-.25-.83-.62-1.08-1.06-.52-1-.52-2.17,0-3.17l-.02-.02Z"></path><path class="cls-1" d="M166.67,45.04c.37.2.66.5.85.86.22.42.32.89.31,1.36v3.43h-1.56v-3.23c.02-.39-.11-.78-.38-1.07-.26-.25-.63-.39-1-.36-.38-.02-.75.11-1.02.36-.27.3-.41.68-.38,1.07v3.23h-1.56v-7.81h1.56v2.69c.21-.26.48-.47.8-.6.35-.15.73-.22,1.11-.21.44-.01.88.09,1.28.29"></path></g></svg>